# xmcd CD database file
#
# Track frame offsets:
#	200
#	15161
#	27310
#	51769
#	88169
#	102637
#	125073
#	138988
#	151684
#	169632
#	189543
#	202580
#	217336
#	230649
#	249962
#	263062
#
# Disc length: 3735 seconds
#
# Revision: 0
# Processed by: cddbd v1.5.2PL0 Copyright (c) Steve Scherf et al.
# Submitted via: CDex 1.51
#
DISCID=d50e9510
DTITLE=Smeenk, Roland - (1995) Travelling On
DYEAR=1995
DGENRE=Blues
TTITLE0=Friends (1)
TTITLE1=Straighten Up
TTITLE2=Circles and Lines
TTITLE3=Woensel West
TTITLE4=125th Street New York
TTITLE5=Heart of Life
TTITLE6=Are You Fer It?
TTITLE7=P.P.P.
TTITLE8=Hit That Jive
TTITLE9=Bad Chemistry
TTITLE10=Oochie Pachie
TTITLE11=I heard It Through the Grapevine
TTITLE12=Your Feet's too Big
TTITLE13=Pearl of Love
TTITLE14=Nipp Zipp
TTITLE15=Song for my Father
EXTD=YEAR: 1995
EXTT0=
EXTT1=
EXTT2=
EXTT3=
EXTT4=
EXTT5=
EXTT6=
EXTT7=
EXTT8=
EXTT9=
EXTT10=
EXTT11=
EXTT12=
EXTT13=
EXTT14=
EXTT15=
PLAYORDER=
